<svg version="1.2" xmlns="http://www.w3.org/2000/svg" viewBox="0 0 282 280" width="282" height="280">
	<g>
		<path fill="currentColor" d="m280.58 49.79c0.37 2.32 0.84 4.21 1.05 4.21 0.2 0 0.37-12.15 0.37-27v46.69l-2.02 1.83c-1.96 1.77-2.14 1.76-6.12-0.48-3.64-2.05-5.02-2.25-12.23-1.77-13.93 0.91-27.69 7.05-50.53 22.52-12.51 8.47-15.04 10.38-29.57 22.22-23.3 18.98-77.98 72.35-106.03 103.48-4.4 4.88-10.14 11.12-12.75 13.86-2.61 2.74-4.75 5.35-4.75 5.81 0 0.46-0.67 0.84-1.49 0.84-0.82 0-2.06 0.9-2.74 2-1.32 2.11-2.77 2.66-2.77 1.05 0-1.38 8.41-13.29 15.92-22.55 19.01-23.42 25.49-31.06 35.54-41.89 14.69-15.81 21.58-22.74 30.85-31 4.26-3.79 7.54-7.09 7.31-7.33-0.24-0.23-2.16 0.08-4.28 0.7-3.62 1.06-20.38 3.96-23.09 4-0.69 0.01-1.25-0.82-1.25-1.84 0-2.87 6.9-7.14 11.55-7.15 14.86-0.05 35.54-12.5 41.88-25.23 2.03-4.08 2.57-6.64 2.57-12.25 0-6.23-0.4-7.76-3.25-12.51-3.74-6.24-9.99-11.38-16.04-13.22-5.6-1.7-48.3-1.61-54.71 0.11-2.47 0.67-12.82 1.47-23 1.78-20.35 0.61-35.46-0.88-48.48-4.78-3.86-1.16-8.11-2.42-9.43-2.8-1.33-0.39-2.52-1.4-2.65-2.26-0.19-1.32 0.37-1.43 3.42-0.69 16.29 3.96 23.23 4.79 40.51 4.83 15.14 0.03 31.97-1.9 53.13-6.11 18.95-3.77 38.19-3.54 50 0.6 5.85 2.05 14.49 7.71 18.09 11.85 3.62 4.15 7.49 11.62 8.78 16.94 0.37 1.51 1.06 2.75 1.54 2.75 0.48 0 6.63-3.82 13.66-8.49 7.04-4.67 16.98-10.52 22.09-13.01 16.77-8.16 36.02-13.4 43.83-11.94 5.9 1.11 7.51-0.05 7.49-5.38-0.04-7.01-1.47-11.89-5-17.04-4.11-6.02-10.11-10.52-16.98-12.74-5.37-1.73-8.56-4.28-12.38-9.88-3.17-4.63-9.69-6.8-21.99-7.33-6.52-0.27-13.11 0.02-16.5 0.75-10.67 2.28-18.64 4.19-20.63 4.94-1.1 0.41-9.65 3.36-19 6.55-9.35 3.19-25.77 8.83-36.5 12.53-32.68 11.27-48.9 14.5-78.63 15.67-16.37 0.64-17.23 0.58-19.32-1.37-1.21-1.13-1.82-2.29-1.35-2.57 0.47-0.29 6.46-1.03 13.32-1.64 19.47-1.74 45.75-6.76 60.48-11.55 7.63-2.49 30.02-10.74 34-12.53 10.07-4.54 36.88-14.17 44.5-15.99 11.99-2.86 17.76-3.98 20.5-4 1.65 0 3.68-0.45 4.5-0.98 0.97-0.63-34.19-0.97-100.25-0.98l-101.75-0.02h282l-30.25 0.09c-26.22 0.08-29.65 0.26-25.75 1.36 11.56 3.25 17.34 7.46 21.54 15.66 1.87 3.66 3.03 4.75 5.58 5.26 1.78 0.36 5.98 1.95 9.35 3.54 9.73 4.6 16.44 13.45 18.11 23.88zm-138.36 73.18c-4.41 2.93-8.22 3.94-8.22 2.18 0-0.47 1.44-2.83 3.2-5.25 2.54-3.5 3.16-5.28 3.02-8.68-0.25-6.07-1.68-8.09-7.56-10.72-7.96-3.57-19.56-4.63-53.19-4.86-25.2-0.18-33.07-0.58-42.22-2.14-9.79-1.67-11.25-2.17-11.25-3.85 0-1.74 0.5-1.87 5.25-1.28 18.74 2.33 31.48 1.85 63.75-2.41 28.44-3.75 34.62-4.17 42.66-2.87 11.09 1.79 16.08 5.86 18.49 15.07 2.24 8.58-2.7 17.38-13.93 24.81zm60.28-82.97c0.34 0.55-0.06 1-0.88 1-0.83 0-1.74-0.39-2.04-0.87-0.29-0.47-1.66-0.65-3.04-0.38-1.38 0.26-3.65 0.19-5.06-0.16-2.06-0.52-2.36-0.97-1.58-2.37 0.76-1.34 0.38-2.22-1.71-3.97-2.6-2.16-2.62-2.29-0.81-3.7 3.94-3.06 12.17-4.03 21.48-2.53 4.75 0.76 10.89 1.49 13.64 1.62 2.75 0.13 5.57 0.27 6.26 0.3 2.21 0.11-0.73 3.61-4.11 4.89-2.54 0.95-3.22 0.9-3.91-0.34-1.25-2.22-3.7-1.81-5.92 1.01-2.76 3.51-6.46 3.3-8.62-0.49-2.16-3.8-6.84-4.41-5.78-0.76 0.36 1.24 0.84 3.04 1.06 4 0.22 0.97 0.68 2.21 1.02 2.75zm-16.5 0c-1.98 1.28-5.29 1.28-4.5 0 0.34-0.55 1.83-0.99 3.31-0.98 2.1 0.01 2.36 0.22 1.19 0.98z"/>
		<path fill="currentColor" d="m202.5 40c-0.34-0.54-0.8-1.78-1.02-2.75-0.13-0.55-0.34-1.39-0.57-2.24 1.33 2.41 3.87 5.07 6.01 5.96 1.74 0.72 2.98 1.8 2.76 2.42-0.58 1.64-5.78 0.81-8.89-1.44-3.25-2.34-5.16-2.4-14.29-0.45-3.85 0.82-10.15 2.17-14 3-7.84 1.68-12.89 1.94-12.08 0.62 0.3-0.48 2.69-1.4 5.31-2.04 9.61-2.34 22.79-6.33 23.7-7.17 0.54-0.51-0.69-1.54-2.97-2.49-3.74-1.57-3.82-1.69-1.93-3.13 6.06-4.63 14.35-5.41 28.61-2.7q0.58 0.11 1.12 0.21c-1.83-0.24-3.7-0.51-5.4-0.78-9.31-1.5-17.54-0.53-21.48 2.53-1.81 1.41-1.79 1.54 0.81 3.7 2.09 1.75 2.47 2.63 1.71 3.97-0.78 1.4-0.48 1.85 1.58 2.37 1.41 0.35 3.68 0.42 5.06 0.16 1.38-0.27 2.75-0.09 3.04 0.38 0.3 0.48 1.21 0.87 2.04 0.87 0.82 0 1.22-0.45 0.88-1zm-174.54 11.51c-9.25-0.49-17.54-1.59-22.37-3.09-3.8-1.2-3.16-1.29 8.99-1.35 9.1-0.05 18.41-0.53 27.56-1.43q-2.1 0.23-4.12 0.41c-6.86 0.61-12.85 1.35-13.32 1.64-0.47 0.28 0.14 1.44 1.35 2.57 0.6 0.56 1.11 0.97 1.91 1.25zm4.22 36.98q-0.46-0.06-0.93-0.12c-4.75-0.59-5.25-0.46-5.25 1.28 0 0.95 0.47 1.53 2.64 2.14q-0.84-0.14-1.64-0.29c-10.09-1.76-15.76-3.82-17.67-6.41-0.64-0.87-1.05-1.7-0.92-1.84 0.14-0.13 2.46 0.4 5.17 1.19 6.29 1.84 12.3 3.18 18.6 4.05zm192.85-54.82q-0.03 0.08-0.03 0.15c0 1.53-7.15 9.18-8.58 9.18-2.11 0-1.73-1.85 1.08-5.18 1.38-1.64 2.5-3.61 2.5-4.4 0-0.53-0.17-0.9-0.45-1.13q0.69 0.35 1.19 1.2c0.69 1.24 1.37 1.29 3.91 0.34q0.19-0.07 0.38-0.16zm-213.29 34.78c-3.45-1.35-6.09-2.73-7.56-4.03-3.52-3.09-2-3.01 8.02 0.44 4.27 1.47 7.58 2.55 10.68 3.35-2.73-0.57-5.68-1.25-9.02-2.07-3.05-0.74-3.61-0.63-3.42 0.69 0.09 0.54 0.6 1.15 1.3 1.62zm211.33-39.78c3.24-0.12 5.56-0.98 7.94-2.68 2.32-1.65 2.99-1.8 2.99-0.66 0 2.02-5.45 7.67-7.4 7.67q-0.15 0-0.29 0.01c2.57-1.55 4.29-3.98 2.45-4.07-0.65-0.03-3.13-0.15-5.69-0.27zm-110.2 118.23q-1.02 0.08-1.7 0.08c-4 0.02-3.84-1.61 0.38-3.89 1.62-0.88 4.06-2.38 5.42-3.34 1.36-0.96 4.29-1.76 6.5-1.76 6.34-0.02 13.7-2.26 20.56-5.82-6.85 3.55-14.18 5.8-20.48 5.82-4.65 0.01-11.55 4.28-11.55 7.15 0 0.82 0.36 1.52 0.87 1.76zm135.23-119.62c-2.27-0.78-4.24-1.28-5.37-1.28-1.07 0-1.86-1.18-2.28-3.42q-0.28-1.5-0.95-2.8c2.73 3.74 5.23 5.95 8.6 7.5zm-64.7-22.79q4.93-1.31 9.6-2.38l6.15-1.42q3.1 0.15 2.85 0.31c-0.82 0.53-2.85 0.98-4.5 0.98-2.2 0.02-6.35 0.74-14.1 2.51zm2.6 35.51c1.17-0.76 0.91-0.97-1.19-0.98-1.48-0.01-2.97 0.43-3.31 0.98-0.79 1.28 2.52 1.28 4.5 0zm-186-40l101.75 0.02c20.14 0 37.41 0.03 51.66 0.1l-52.66-0.04zm33.86 70.04c3.94 0.35 8.66 0.53 15.14 0.71 5.95 0.16 11.38 0.14 16.77-0.11q-5.87 0.35-11.4 0.33c-8.58-0.02-14.62-0.23-20.51-0.93zm8.57 19.42c13.61 0.73 29.59-0.47 52.57-3.5-25.54 3.37-38.84 4.38-52.57 3.5zm28.57-12.79c10.18-0.31 20.53-1.11 23-1.78-4.3 1.16-15.72 1.81-27.34 1.88q2.13-0.04 4.34-0.1zm173.73-76.55c-12.35 0.12-20.19 0.45-19.23 0.86 0.57 0.24 1.75 0.71 3.18 1.27q-1.28-0.41-2.68-0.8c-3.52-1-1.07-1.24 18.73-1.33zm-174.31 41.22c10.44-2.17 22.93-5.17 28.08-6.84-7.28 2.36-17.38 4.79-28.08 6.84zm86.49-28.83c-9.29 3.31-19.14 7.08-24.41 9.46 6.92-3.12 15.4-6.38 24.41-9.46zm112.38 30.69c2.58 4.44 3.66 8.91 3.69 14.98-0.03-5.54-1.28-10.57-3.69-14.98zm-195.12 6.01c-8.27 1.23-16.82 1.94-26.83 2.39q-2.74 0.13-5.54 0.17 1.65-0.06 3.57-0.14c10.93-0.43 20.03-1.14 28.8-2.42zm28.06 131.66c5.74-6.31 11.28-12.16 16.58-17.47-4.46 4.51-9.57 9.92-16.35 17.21q-0.11 0.13-0.23 0.26zm-62.33-86.95c2.88 0.43 5.81 0.75 9.39 0.99-3.98-0.2-6.74-0.42-7.79-0.65q-0.66-0.15-1.6-0.34zm219-61.72c-2.06-1.23-4.8-2.56-7.5-3.66 2.65 0.89 5.17 2.13 7.5 3.66zm-57.77-1.29c1.28-0.46 3.69 0.67 5.07 3.1-1.17-2.07-3.63-3.32-5.07-3.1zm-113.68 64.8c23.58 0.31 34.57 1.2 41.82 3.5-7.17-2.27-18.03-3.16-41.82-3.5zm-64.61-23.73c-2.81-0.73-5.43-1.52-7.8-2.32 1.94 0.57 4.8 1.42 7.48 2.23zm101.58 73.39c4.99-0.87 10.11-1.86 11.92-2.39-2.33 0.68-7.09 1.6-11.92 2.39zm112.78-128.53q-1.76-1.61-4.56-2.93c1.87 0.79 3.37 1.76 4.56 2.93zm-12.74-4.98c-3.42-0.44-7.49-0.7-11.44-0.76q1.79 0.02 3.61 0.09 4.39 0.19 7.83 0.67zm21.96 3.22q0.77 1.23 1.43 2.54 0.62 1.26 1.21 2.11c-0.48-0.68-0.97-1.54-1.52-2.62q-0.54-1.05-1.12-2.03zm-28.32 17.03c-1.01 0.25-2.25 1.08-3.28 2.39 1.09-1.39 2.24-2.19 3.28-2.39zm33.04-10.41c0.57 0.31 1.21 0.52 1.98 0.67-0.77-0.15-1.41-0.36-1.98-0.67z"/>
	</g>
</svg>