<svg version="1.2" xmlns="http://www.w3.org/2000/svg" viewBox="0 0 282 280" width="282" height="280"><style>.a{fill:#e0b809}.b{fill:#dbbd32}</style><path class="a" d="m280.6 45.8c0.3 2.3 0.8 4.2 1 4.2 0.2 0 0.4-12.1 0.4-27v46.7l-2 1.8c-2 1.8-2.2 1.8-6.1-0.5-3.7-2-5.1-2.2-12.3-1.7-13.9 0.9-27.7 7-50.5 22.5-12.5 8.5-15 10.4-29.6 22.2-23.3 19-78 72.4-106 103.5-4.4 4.9-10.1 11.1-12.8 13.8-2.6 2.8-4.7 5.4-4.7 5.9 0 0.4-0.7 0.8-1.5 0.8-0.8 0-2.1 0.9-2.7 2-1.4 2.1-2.8 2.7-2.8 1.1 0-1.4 8.4-13.3 15.9-22.6 19-23.4 25.5-31.1 35.6-41.9 14.6-15.8 21.5-22.7 30.8-31 4.3-3.8 7.5-7.1 7.3-7.3-0.2-0.2-2.1 0.1-4.3 0.7-3.6 1-20.3 3.9-23.1 4-0.6 0-1.2-0.8-1.2-1.9 0-2.8 6.9-7.1 11.5-7.1 14.9-0.1 35.6-12.5 41.9-25.2 2.1-4.1 2.6-6.7 2.6-12.3 0-6.2-0.4-7.8-3.3-12.5-3.7-6.2-9.9-11.4-16-13.2-5.6-1.7-48.3-1.6-54.7 0.1-2.5 0.7-12.8 1.5-23 1.8-20.4 0.6-35.5-0.9-48.5-4.8-3.8-1.2-8.1-2.4-9.4-2.8-1.3-0.4-2.5-1.4-2.7-2.3-0.2-1.3 0.4-1.4 3.5-0.7 16.2 4 23.2 4.8 40.5 4.9 15.1 0 31.9-1.9 53.1-6.1 18.9-3.8 38.2-3.6 50 0.6 5.8 2 14.5 7.7 18.1 11.8 3.6 4.2 7.5 11.6 8.8 16.9 0.3 1.6 1 2.8 1.5 2.8 0.5 0 6.6-3.8 13.7-8.5 7-4.7 16.9-10.5 22.1-13 16.7-8.2 36-13.4 43.8-11.9 5.9 1.1 7.5-0.1 7.5-5.4-0.1-7-1.5-11.9-5-17.1-4.1-6-10.1-10.5-17-12.7-5.4-1.7-8.6-4.3-12.4-9.9-3.2-4.6-9.7-6.8-22-7.3-6.5-0.3-13.1 0-16.5 0.7-10.6 2.3-18.6 4.2-20.6 5-1.1 0.4-9.7 3.3-19 6.5-9.4 3.2-25.8 8.9-36.5 12.6-32.7 11.2-48.9 14.5-78.6 15.6-16.4 0.7-17.3 0.6-19.4-1.3-1.2-1.2-1.8-2.3-1.3-2.6 0.5-0.3 6.5-1 13.3-1.7 19.5-1.7 45.8-6.7 60.5-11.5 7.6-2.5 30-10.7 34-12.5 10.1-4.6 36.9-14.2 44.5-16 12-2.9 17.8-4 20.5-4 1.6 0 3.7-0.5 4.5-1 1-0.6-34.2-1-100.3-1h-101.7 282l-30.3 0.1c-26.2 0.1-29.6 0.3-25.7 1.4 11.6 3.2 17.3 7.4 21.5 15.6 1.9 3.7 3.1 4.8 5.6 5.3 1.8 0.3 6 1.9 9.4 3.5 9.7 4.6 16.4 13.5 18.1 23.9zm-138.4 73.2c-4.4 2.9-8.2 3.9-8.2 2.2 0-0.5 1.4-2.9 3.2-5.3 2.5-3.5 3.2-5.3 3-8.7-0.2-6-1.7-8.1-7.5-10.7-8-3.6-19.6-4.6-53.2-4.9-25.2-0.1-33.1-0.5-42.3-2.1-9.7-1.7-11.2-2.2-11.2-3.8 0-1.8 0.5-1.9 5.2-1.3 18.8 2.3 31.5 1.8 63.8-2.4 28.4-3.8 34.6-4.2 42.7-2.9 11 1.8 16 5.9 18.4 15.1 2.3 8.5-2.7 17.3-13.9 24.8zm60.3-83c0.3 0.6-0.1 1-0.9 1-0.8 0-1.7-0.4-2-0.9-0.3-0.4-1.7-0.6-3.1-0.3-1.3 0.2-3.6 0.1-5-0.2-2.1-0.5-2.4-1-1.6-2.4 0.8-1.3 0.4-2.2-1.7-3.9-2.6-2.2-2.6-2.3-0.8-3.7 3.9-3.1 12.1-4.1 21.5-2.6 4.7 0.8 10.8 1.5 13.6 1.6 2.7 0.2 5.6 0.3 6.3 0.3 2.2 0.2-0.8 3.7-4.2 4.9-2.5 1-3.2 0.9-3.9-0.3-1.2-2.2-3.7-1.8-5.9 1-2.7 3.5-6.4 3.3-8.6-0.5-2.2-3.8-6.8-4.4-5.8-0.7 0.4 1.2 0.9 3 1.1 4 0.2 0.9 0.7 2.2 1 2.7zm-16.5 0c-2 1.3-5.3 1.3-4.5 0 0.3-0.5 1.8-1 3.3-1 2.1 0 2.4 0.2 1.2 1z"/><path class="b" d="m202.5 40c-0.3-0.5-0.8-1.8-1-2.8-0.2-0.5-0.4-1.3-0.6-2.2 1.3 2.4 3.9 5.1 6 6 1.8 0.7 3 1.8 2.8 2.4-0.6 1.6-5.8 0.8-8.9-1.4-3.3-2.4-5.2-2.5-14.3-0.5-3.8 0.8-10.2 2.2-14 3-7.8 1.7-12.9 1.9-12.1 0.6 0.3-0.5 2.7-1.4 5.3-2 9.6-2.4 22.8-6.3 23.7-7.2 0.6-0.5-0.7-1.5-2.9-2.5-3.8-1.5-3.9-1.7-2-3.1 6.1-4.6 14.4-5.4 28.6-2.7q0.6 0.1 1.2 0.2c-1.9-0.2-3.7-0.5-5.4-0.8-9.3-1.5-17.6-0.5-21.5 2.6-1.8 1.4-1.8 1.5 0.8 3.7 2.1 1.7 2.5 2.6 1.7 3.9-0.8 1.4-0.5 1.9 1.6 2.4 1.4 0.3 3.7 0.4 5 0.2 1.4-0.3 2.8-0.1 3.1 0.3 0.3 0.5 1.2 0.9 2 0.9 0.8 0 1.2-0.5 0.9-1zm-174.5 11.5c-9.3-0.5-17.6-1.6-22.4-3.1-3.8-1.2-3.2-1.3 9-1.3 9.1-0.1 18.4-0.6 27.5-1.5q-2.1 0.3-4.1 0.4c-6.8 0.7-12.8 1.4-13.3 1.7-0.5 0.3 0.1 1.4 1.4 2.6 0.6 0.5 1.1 0.9 1.9 1.2zm4.2 37q-0.5-0.1-0.9-0.1c-4.8-0.6-5.3-0.5-5.3 1.3 0 0.9 0.5 1.5 2.6 2.1q-0.8-0.1-1.6-0.3c-10.1-1.8-15.8-3.8-17.7-6.4-0.6-0.9-1-1.7-0.9-1.8 0.2-0.2 2.5 0.4 5.2 1.1 6.3 1.9 12.3 3.2 18.6 4.1zm192.8-54.8q0 0 0 0.1c0 1.5-7.2 9.2-8.6 9.2-2.1 0-1.7-1.9 1.1-5.2 1.4-1.6 2.5-3.6 2.5-4.4 0-0.5-0.2-0.9-0.5-1.1q0.7 0.3 1.2 1.2c0.7 1.2 1.4 1.3 3.9 0.3q0.2 0 0.4-0.1zm-213.3 34.8c-3.4-1.4-6-2.8-7.5-4.1-3.5-3.1-2-3 8 0.5 4.3 1.4 7.6 2.5 10.7 3.3-2.7-0.6-5.7-1.2-9-2.1-3.1-0.7-3.6-0.6-3.5 0.7 0.1 0.6 0.6 1.2 1.3 1.7zm211.4-39.8c3.2-0.1 5.5-1 7.9-2.7 2.3-1.7 3-1.8 3-0.7 0 2.1-5.4 7.7-7.4 7.7q-0.2 0-0.3 0c2.6-1.5 4.3-4 2.5-4.1-0.7 0-3.2-0.1-5.7-0.2zm-110.2 118.2q-1.1 0.1-1.7 0.1c-4 0-3.9-1.6 0.3-3.9 1.7-0.9 4.1-2.4 5.5-3.4 1.3-0.9 4.3-1.7 6.5-1.7 6.3 0 13.7-2.3 20.5-5.8-6.8 3.5-14.2 5.8-20.5 5.8-4.6 0-11.5 4.3-11.5 7.1 0 0.9 0.4 1.6 0.9 1.8zm135.2-119.6c-2.3-0.8-4.2-1.3-5.4-1.3-1 0-1.8-1.2-2.3-3.4q-0.2-1.5-0.9-2.8c2.7 3.7 5.2 5.9 8.6 7.5zm-64.7-22.8q4.9-1.3 9.6-2.4l6.2-1.4q3 0.1 2.8 0.3c-0.8 0.5-2.8 1-4.5 1-2.2 0-6.3 0.7-14.1 2.5zm2.6 35.5c1.2-0.8 0.9-1-1.2-1-1.5 0-3 0.4-3.3 1-0.8 1.3 2.5 1.3 4.5 0zm-186-40h101.8c20.1 0 37.4 0 51.6 0.1h-52.6zm33.8 70c4 0.4 8.7 0.5 15.2 0.7 5.9 0.2 11.3 0.2 16.7-0.1q-5.9 0.4-11.4 0.3c-8.6 0-14.6-0.2-20.5-0.9zm8.6 19.4c13.6 0.8 29.6-0.4 52.6-3.5-25.6 3.4-38.9 4.4-52.6 3.5zm28.6-12.8c10.1-0.3 20.5-1.1 23-1.7-4.3 1.1-15.8 1.8-27.4 1.8q2.1 0 4.4-0.1zm173.7-76.5c-12.4 0.1-20.2 0.4-19.2 0.9 0.5 0.2 1.7 0.7 3.1 1.2q-1.2-0.4-2.6-0.8c-3.6-1-1.1-1.2 18.7-1.3zm-174.3 41.2c10.4-2.2 22.9-5.2 28.1-6.8-7.3 2.3-17.4 4.8-28.1 6.8zm86.5-28.8c-9.3 3.3-19.2 7.1-24.4 9.4 6.9-3.1 15.4-6.3 24.4-9.4zm112.3 30.7c2.6 4.4 3.7 8.9 3.7 15 0-5.6-1.2-10.6-3.7-15zm-195.1 6c-8.2 1.2-16.8 1.9-26.8 2.4q-2.7 0.1-5.5 0.2 1.6-0.1 3.5-0.2c11-0.4 20.1-1.1 28.8-2.4zm28.1 131.7c5.7-6.4 11.3-12.2 16.6-17.5-4.5 4.5-9.6 9.9-16.4 17.2q-0.1 0.1-0.2 0.3zm-62.3-87c2.8 0.4 5.8 0.8 9.3 1-3.9-0.2-6.7-0.4-7.7-0.7q-0.7-0.1-1.6-0.3zm218.9-61.7c-2-1.2-4.7-2.6-7.4-3.7 2.6 0.9 5.1 2.2 7.4 3.7zm-57.7-1.3c1.3-0.5 3.7 0.7 5.1 3.1-1.2-2.1-3.7-3.3-5.1-3.1zm-113.7 64.8c23.6 0.3 34.6 1.2 41.8 3.5-7.1-2.3-18-3.2-41.8-3.5zm-64.6-23.7c-2.8-0.8-5.4-1.6-7.8-2.4 1.9 0.6 4.8 1.5 7.5 2.3zm101.6 73.4c4.9-0.9 10.1-1.9 11.9-2.4-2.4 0.6-7.1 1.6-11.9 2.4zm112.7-128.6q-1.7-1.6-4.5-2.9c1.8 0.8 3.3 1.8 4.5 2.9zm-12.7-4.9c-3.4-0.5-7.5-0.7-11.4-0.8q1.7 0 3.6 0.1 4.3 0.2 7.8 0.7zm22 3.2q0.7 1.2 1.4 2.5 0.6 1.3 1.2 2.1c-0.5-0.7-1-1.5-1.5-2.6q-0.6-1.1-1.1-2zm-28.4 17c-1 0.3-2.2 1.1-3.2 2.4 1-1.4 2.2-2.2 3.2-2.4zm33.1-10.4c0.5 0.3 1.2 0.5 2 0.7-0.8-0.2-1.5-0.4-2-0.7z"/></svg>